<?xml version="1.0" encoding="UTF-8" standalone="no"?>
<!DOCTYPE svg PUBLIC "-//W3C//DTD SVG 1.1//EN"
 "http://www.w3.org/Graphics/SVG/1.1/DTD/svg11.dtd">
<!-- Generated by graphviz version 2.43.0 (0)
 -->
<!-- Title: AI Career Assistant &#45; Architecture Overview Pages: 1 -->
<svg width="1113pt" height="1402pt"
 viewBox="0.00 0.00 1113.00 1402.00" xmlns="http://www.w3.org/2000/svg" xmlns:xlink="http://www.w3.org/1999/xlink">
<g id="graph0" class="graph" transform="scale(1 1) rotate(0) translate(36 1366)">
<title>AI Career Assistant &#45; Architecture Overview</title>
<polygon fill="white" stroke="transparent" points="-36,36 -36,-1366 1077,-1366 1077,36 -36,36"/>
<text text-anchor="middle" x="520.5" y="-10.8" font-family="Sans-Serif" font-size="24.00" fill="#2d3436">AI Career Assistant &#45; Architecture Overview</text>
<g id="clust1" class="cluster">
<title>cluster_AWS Cloud</title>
<path fill="#f7fafd" stroke="#4a7fb5" d="M278,-208C278,-208 1021,-208 1021,-208 1027,-208 1033,-214 1033,-220 1033,-220 1033,-1310 1033,-1310 1033,-1316 1027,-1322 1021,-1322 1021,-1322 278,-1322 278,-1322 272,-1322 266,-1316 266,-1310 266,-1310 266,-220 266,-220 266,-214 272,-208 278,-208"/>
<text text-anchor="middle" x="315.5" y="-1306" font-family="Sans-Serif" font-size="15.00" fill="#2d3436">AWS Cloud</text>
</g>
<g id="clust2" class="cluster">
<title>cluster_AWS Region</title>
<path fill="#eff6fb" stroke="#7aa5c9" d="M430,-216C430,-216 1013,-216 1013,-216 1019,-216 1025,-222 1025,-228 1025,-228 1025,-1277 1025,-1277 1025,-1283 1019,-1289 1013,-1289 1013,-1289 430,-1289 430,-1289 424,-1289 418,-1283 418,-1277 418,-1277 418,-228 418,-228 418,-222 424,-216 430,-216"/>
<text text-anchor="middle" x="465.5" y="-1274.6" font-family="Sans-Serif" font-size="13.00" fill="#2d3436">AWS Region</text>
</g>
<g id="clust3" class="cluster">
<title>cluster_VPC (subnets span 2 AZs)</title>
<path fill="#eaf4ea" stroke="#5b9e5b" d="M438,-224C438,-224 1005,-224 1005,-224 1011,-224 1017,-230 1017,-236 1017,-236 1017,-669 1017,-669 1017,-675 1011,-681 1005,-681 1005,-681 438,-681 438,-681 432,-681 426,-675 426,-669 426,-669 426,-236 426,-236 426,-230 432,-224 438,-224"/>
<text text-anchor="middle" x="519.5" y="-666.6" font-family="Sans-Serif" font-size="13.00" fill="#2d3436">VPC (subnets span 2 AZs)</text>
</g>
<g id="clust4" class="cluster">
<title>cluster_Public Subnet</title>
<path fill="#fff6e5" stroke="#d9a441" d="M446,-232C446,-232 539,-232 539,-232 545,-232 551,-238 551,-244 551,-244 551,-639 551,-639 551,-645 545,-651 539,-651 539,-651 446,-651 446,-651 440,-651 434,-645 434,-639 434,-639 434,-244 434,-244 434,-238 440,-232 446,-232"/>
<text text-anchor="middle" x="482.5" y="-637.4" font-family="Sans-Serif" font-size="12.00" fill="#2d3436">Public Subnet</text>
</g>
<g id="clust5" class="cluster">
<title>cluster_Private Subnet</title>
<path fill="#edeaf7" stroke="#7a6bb5" d="M728,-448C728,-448 997,-448 997,-448 1003,-448 1009,-454 1009,-460 1009,-460 1009,-639 1009,-639 1009,-645 1003,-651 997,-651 997,-651 728,-651 728,-651 722,-651 716,-645 716,-639 716,-639 716,-460 716,-460 716,-454 722,-448 728,-448"/>
<text text-anchor="middle" x="768" y="-637.4" font-family="Sans-Serif" font-size="12.00" fill="#2d3436">Private Subnet</text>
</g>
<!-- 4511245aa4914ffb95c37fa738d4a75a -->
<g id="node1" class="node">
<title>4511245aa4914ffb95c37fa738d4a75a</title>
<image xlink:href="/usr/local/lib/python3.12/dist-packages/resources/onprem/client/user.png" width="101px" height="101px" preserveAspectRatio="xMinYMin meet" x="0" y="-800.5"/>
<text text-anchor="middle" x="50.5" y="-684.6" font-family="Sans-Serif" font-size="13.00" fill="#2d3436">Student</text>
<text text-anchor="middle" x="50.5" y="-670.6" font-family="Sans-Serif" font-size="13.00" fill="#2d3436">Browser</text>
</g>
<!-- 3674024e9bed40c2a9db2e051110bac0 -->
<g id="node2" class="node">
<title>3674024e9bed40c2a9db2e051110bac0</title>
<image xlink:href="/usr/local/lib/python3.12/dist-packages/resources/aws/network/route-53.png" width="101px" height="101px" preserveAspectRatio="xMinYMin meet" x="274" y="-1016.5"/>
<text text-anchor="middle" x="324.5" y="-900.6" font-family="Sans-Serif" font-size="13.00" fill="#2d3436">Route 53</text>
<text text-anchor="middle" x="324.5" y="-886.6" font-family="Sans-Serif" font-size="13.00" fill="#2d3436">(DNS)</text>
</g>
<!-- 4511245aa4914ffb95c37fa738d4a75a&#45;&gt;3674024e9bed40c2a9db2e051110bac0 -->
<g id="edge1" class="edge">
<title>4511245aa4914ffb95c37fa738d4a75a&#45;&gt;3674024e9bed40c2a9db2e051110bac0</title>
<path fill="none" stroke="#7b8894" d="M101.07,-789.37C147.52,-826.25 216.93,-881.37 265.84,-920.21"/>
<polygon fill="#7b8894" stroke="#7b8894" points="263.8,-923.06 273.81,-926.54 268.15,-917.58 263.8,-923.06"/>
<text text-anchor="middle" x="187.5" y="-899.6" font-family="Sans-Serif" font-size="13.00" fill="#2d3436">1. DNS</text>
</g>
<!-- c814e1a352f74b6aad138ea87d59c015 -->
<g id="node3" class="node">
<title>c814e1a352f74b6aad138ea87d59c015</title>
<image xlink:href="/usr/local/lib/python3.12/dist-packages/resources/aws/network/cloudfront.png" width="101px" height="101px" preserveAspectRatio="xMinYMin meet" x="274" y="-800.5"/>
<text text-anchor="middle" x="324.5" y="-684.6" font-family="Sans-Serif" font-size="13.00" fill="#2d3436">CloudFront</text>
<text text-anchor="middle" x="324.5" y="-670.6" font-family="Sans-Serif" font-size="13.00" fill="#2d3436">(CDN)</text>
</g>
<!-- 4511245aa4914ffb95c37fa738d4a75a&#45;&gt;c814e1a352f74b6aad138ea87d59c015 -->
<g id="edge2" class="edge">
<title>4511245aa4914ffb95c37fa738d4a75a&#45;&gt;c814e1a352f74b6aad138ea87d59c015</title>
<path fill="none" stroke="#7b8894" d="M101.07,-750C146.85,-750 214.94,-750 263.71,-750"/>
<polygon fill="#7b8894" stroke="#7b8894" points="263.81,-753.5 273.81,-750 263.81,-746.5 263.81,-753.5"/>
<text text-anchor="middle" x="187.5" y="-753.6" font-family="Sans-Serif" font-size="13.00" fill="#2d3436">2. load frontend</text>
</g>
<!-- 441870447d5a4125a5eb8b8782883865 -->
<g id="node5" class="node">
<title>441870447d5a4125a5eb8b8782883865</title>
<image xlink:href="/usr/local/lib/python3.12/dist-packages/resources/aws/network/elastic-load-balancing.png" width="101px" height="101px" preserveAspectRatio="xMinYMin meet" x="442" y="-589.5"/>
<text text-anchor="middle" x="492.5" y="-473.6" font-family="Sans-Serif" font-size="13.00" fill="#2d3436">Application</text>
<text text-anchor="middle" x="492.5" y="-459.6" font-family="Sans-Serif" font-size="13.00" fill="#2d3436">Load Balancer</text>
</g>
<!-- 4511245aa4914ffb95c37fa738d4a75a&#45;&gt;441870447d5a4125a5eb8b8782883865 -->
<g id="edge4" class="edge">
<title>4511245aa4914ffb95c37fa738d4a75a&#45;&gt;441870447d5a4125a5eb8b8782883865</title>
<path fill="none" stroke="darkblue" stroke-width="2.2" d="M101.09,-697.89C141.63,-658.56 202.47,-606.64 266,-578 318.98,-554.11 385.03,-544.79 431.92,-541.19"/>
<polygon fill="darkblue" stroke="darkblue" stroke-width="2.2" points="432.19,-544.68 441.92,-540.48 431.7,-537.7 432.19,-544.68"/>
<text text-anchor="middle" x="324.5" y="-581.6" font-family="Sans-Serif" font-size="13.00" fill="#2d3436">3. HTTPS API</text>
</g>
<!-- 3bddcc1d281149bdbc0fca405d206fab -->
<g id="node4" class="node">
<title>3bddcc1d281149bdbc0fca405d206fab</title>
<image xlink:href="/usr/local/lib/python3.12/dist-packages/resources/aws/storage/simple-storage-service-s3.png" width="101px" height="101px" preserveAspectRatio="xMinYMin meet" x="442" y="-822.5"/>
<text text-anchor="middle" x="492.5" y="-706.6" font-family="Sans-Serif" font-size="13.00" fill="#2d3436">S3</text>
<text text-anchor="middle" x="492.5" y="-692.6" font-family="Sans-Serif" font-size="13.00" fill="#2d3436">React Frontend</text>
</g>
<!-- c814e1a352f74b6aad138ea87d59c015&#45;&gt;3bddcc1d281149bdbc0fca405d206fab -->
<g id="edge3" class="edge">
<title>c814e1a352f74b6aad138ea87d59c015&#45;&gt;3bddcc1d281149bdbc0fca405d206fab</title>
<path fill="none" stroke="#7b8894" d="M375.31,-756.6C393.03,-758.95 413.18,-761.62 431.66,-764.07"/>
<polygon fill="#7b8894" stroke="#7b8894" points="431.36,-767.56 441.73,-765.4 432.28,-760.62 431.36,-767.56"/>
</g>
<!-- 9f210d337c1a458fbd7cce6211d88f55 -->
<g id="node7" class="node">
<title>9f210d337c1a458fbd7cce6211d88f55</title>
<image xlink:href="/usr/local/lib/python3.12/dist-packages/resources/aws/compute/ec2.png" width="101px" height="101px" preserveAspectRatio="xMinYMin meet" x="724" y="-589.5"/>
<text text-anchor="middle" x="774.5" y="-473.6" font-family="Sans-Serif" font-size="13.00" fill="#2d3436">Django REST API</text>
<text text-anchor="middle" x="774.5" y="-459.6" font-family="Sans-Serif" font-size="13.00" fill="#2d3436">on EC2</text>
</g>
<!-- 441870447d5a4125a5eb8b8782883865&#45;&gt;9f210d337c1a458fbd7cce6211d88f55 -->
<g id="edge5" class="edge">
<title>441870447d5a4125a5eb8b8782883865&#45;&gt;9f210d337c1a458fbd7cce6211d88f55</title>
<path fill="none" stroke="darkblue" stroke-width="2.2" d="M543.24,-539C590.87,-539 662.81,-539 713.58,-539"/>
<polygon fill="darkblue" stroke="darkblue" stroke-width="2.2" points="713.76,-542.5 723.76,-539 713.76,-535.5 713.76,-542.5"/>
<text text-anchor="middle" x="633.5" y="-542.6" font-family="Sans-Serif" font-size="13.00" fill="#2d3436">4</text>
</g>
<!-- 9db44acea99444e9ac21be4a458216c6 -->
<g id="node6" class="node">
<title>9db44acea99444e9ac21be4a458216c6</title>
<image xlink:href="/usr/local/lib/python3.12/dist-packages/resources/aws/network/nat-gateway.png" width="101px" height="101px" preserveAspectRatio="xMinYMin meet" x="442" y="-373.5"/>
<text text-anchor="middle" x="492.5" y="-257.6" font-family="Sans-Serif" font-size="13.00" fill="#2d3436">NAT</text>
<text text-anchor="middle" x="492.5" y="-243.6" font-family="Sans-Serif" font-size="13.00" fill="#2d3436">Gateway</text>
</g>
<!-- bcd87da39b4b420981274c3ff4a64599 -->
<g id="node12" class="node">
<title>bcd87da39b4b420981274c3ff4a64599</title>
<image xlink:href="/usr/local/lib/python3.12/dist-packages/resources/generic/compute/rack.png" width="101px" height="101px" preserveAspectRatio="xMinYMin meet" x="724" y="-167.5"/>
<text text-anchor="middle" x="774.5" y="-51.6" font-family="Sans-Serif" font-size="13.00" fill="#2d3436">External AI</text>
<text text-anchor="middle" x="774.5" y="-37.6" font-family="Sans-Serif" font-size="13.00" fill="#2d3436">Provider API</text>
</g>
<!-- 9db44acea99444e9ac21be4a458216c6&#45;&gt;bcd87da39b4b420981274c3ff4a64599 -->
<g id="edge8" class="edge">
<title>9db44acea99444e9ac21be4a458216c6&#45;&gt;bcd87da39b4b420981274c3ff4a64599</title>
<path fill="none" stroke="darkblue" stroke-width="2.2" d="M543.24,-286.41C591.47,-250.92 664.62,-197.11 715.48,-159.69"/>
<polygon fill="darkblue" stroke="darkblue" stroke-width="2.2" points="717.78,-162.34 723.76,-153.6 713.63,-156.7 717.78,-162.34"/>
<text text-anchor="middle" x="633.5" y="-279.6" font-family="Sans-Serif" font-size="13.00" fill="#2d3436">7. AI call</text>
<text text-anchor="middle" x="633.5" y="-265.6" font-family="Sans-Serif" font-size="13.00" fill="#2d3436">(server&#45;side only)</text>
</g>
<!-- 9f210d337c1a458fbd7cce6211d88f55&#45;&gt;9db44acea99444e9ac21be4a458216c6 -->
<g id="edge7" class="edge">
<title>9f210d337c1a458fbd7cce6211d88f55&#45;&gt;9db44acea99444e9ac21be4a458216c6</title>
<path fill="none" stroke="darkblue" stroke-width="2.2" d="M723.76,-500.63C675.42,-463.34 602.07,-406.76 551.2,-367.51"/>
<polygon fill="darkblue" stroke="darkblue" stroke-width="2.2" points="553.29,-364.7 543.24,-361.37 549.02,-370.25 553.29,-364.7"/>
<text text-anchor="middle" x="633.5" y="-478.6" font-family="Sans-Serif" font-size="13.00" fill="#2d3436">6. outbound</text>
</g>
<!-- 7d559daadac74aebaf56b53a8533ff30 -->
<g id="node8" class="node">
<title>7d559daadac74aebaf56b53a8533ff30</title>
<image xlink:href="/usr/local/lib/python3.12/dist-packages/resources/aws/database/rds.png" width="101px" height="101px" preserveAspectRatio="xMinYMin meet" x="900" y="-589.5"/>
<text text-anchor="middle" x="950.5" y="-473.6" font-family="Sans-Serif" font-size="13.00" fill="#2d3436">PostgreSQL</text>
<text text-anchor="middle" x="950.5" y="-459.6" font-family="Sans-Serif" font-size="13.00" fill="#2d3436">Amazon RDS</text>
</g>
<!-- 9f210d337c1a458fbd7cce6211d88f55&#45;&gt;7d559daadac74aebaf56b53a8533ff30 -->
<g id="edge6" class="edge">
<title>9f210d337c1a458fbd7cce6211d88f55&#45;&gt;7d559daadac74aebaf56b53a8533ff30</title>
<path fill="none" stroke="darkblue" stroke-width="2.2" d="M825.22,-536.2C836.02,-535.7 847.39,-535.26 858,-535 868.13,-534.75 878.89,-534.88 889.34,-535.21"/>
<polygon fill="darkblue" stroke="darkblue" stroke-width="2.2" points="889.53,-538.71 899.65,-535.59 889.79,-531.72 889.53,-538.71"/>
<text text-anchor="middle" x="862.5" y="-538.6" font-family="Sans-Serif" font-size="13.00" fill="#2d3436">5</text>
</g>
<!-- d1f0980d57cf47dea21416c9ddbf396f -->
<g id="node9" class="node">
<title>d1f0980d57cf47dea21416c9ddbf396f</title>
<image xlink:href="/usr/local/lib/python3.12/dist-packages/resources/aws/management/systems-manager.png" width="101px" height="101px" preserveAspectRatio="xMinYMin meet" x="900" y="-1226.5"/>
<text text-anchor="middle" x="950.5" y="-1110.6" font-family="Sans-Serif" font-size="13.00" fill="#2d3436">SSM Parameter</text>
<text text-anchor="middle" x="950.5" y="-1096.6" font-family="Sans-Serif" font-size="13.00" fill="#2d3436">Store (secrets)</text>
</g>
<!-- 9f210d337c1a458fbd7cce6211d88f55&#45;&gt;d1f0980d57cf47dea21416c9ddbf396f -->
<g id="edge9" class="edge">
<title>9f210d337c1a458fbd7cce6211d88f55&#45;&gt;d1f0980d57cf47dea21416c9ddbf396f</title>
<path fill="none" stroke="#7b8894" stroke-dasharray="5,2" d="M789.82,-622.45C809.13,-727.93 847.27,-914.28 900,-1068 901.76,-1073.12 903.67,-1078.33 905.7,-1083.55"/>
<polygon fill="#7b8894" stroke="#7b8894" points="902.49,-1084.96 909.45,-1092.94 908.99,-1082.36 902.49,-1084.96"/>
</g>
<!-- ea82e0b67cff40efa6cdfdd3d7e8f8c5 -->
<g id="node10" class="node">
<title>ea82e0b67cff40efa6cdfdd3d7e8f8c5</title>
<image xlink:href="/usr/local/lib/python3.12/dist-packages/resources/aws/storage/simple-storage-service-s3.png" width="101px" height="101px" preserveAspectRatio="xMinYMin meet" x="900" y="-822.5"/>
<text text-anchor="middle" x="950.5" y="-706.6" font-family="Sans-Serif" font-size="13.00" fill="#2d3436">S3 File Storage</text>
<text text-anchor="middle" x="950.5" y="-692.6" font-family="Sans-Serif" font-size="13.00" fill="#2d3436">(future)</text>
</g>
<!-- 9f210d337c1a458fbd7cce6211d88f55&#45;&gt;ea82e0b67cff40efa6cdfdd3d7e8f8c5 -->
<g id="edge11" class="edge">
<title>9f210d337c1a458fbd7cce6211d88f55&#45;&gt;ea82e0b67cff40efa6cdfdd3d7e8f8c5</title>
<path fill="none" stroke="#7b8894" stroke-dasharray="5,2" d="M825.13,-605.46C846.52,-634.1 871.64,-667.74 893.68,-697.25"/>
<polygon fill="#7b8894" stroke="#7b8894" points="891.02,-699.54 899.81,-705.46 896.63,-695.35 891.02,-699.54"/>
</g>
<!-- eee76c1c8c9c462ba1417234871194c4 -->
<g id="node11" class="node">
<title>eee76c1c8c9c462ba1417234871194c4</title>
<image xlink:href="/usr/local/lib/python3.12/dist-packages/resources/aws/management/cloudwatch.png" width="101px" height="101px" preserveAspectRatio="xMinYMin meet" x="900" y="-1024.5"/>
<text text-anchor="middle" x="950.5" y="-909.1" font-family="Sans-Serif" font-size="13.00" fill="#2d3436">CloudWatch</text>
</g>
<!-- 9f210d337c1a458fbd7cce6211d88f55&#45;&gt;eee76c1c8c9c462ba1417234871194c4 -->
<g id="edge10" class="edge">
<title>9f210d337c1a458fbd7cce6211d88f55&#45;&gt;eee76c1c8c9c462ba1417234871194c4</title>
<path fill="none" stroke="#7b8894" stroke-dasharray="5,2" d="M802.38,-622.23C825.76,-692.04 861.81,-793.87 900,-880 902.37,-885.35 904.91,-890.81 907.55,-896.28"/>
<polygon fill="#7b8894" stroke="#7b8894" points="904.51,-898.04 912.06,-905.48 910.8,-894.96 904.51,-898.04"/>
</g>
</g>
</svg>
