<?xml version="1.0" encoding="UTF-8" standalone="no"?>
<!DOCTYPE svg PUBLIC "-//W3C//DTD SVG 1.1//EN"
 "http://www.w3.org/Graphics/SVG/1.1/DTD/svg11.dtd">
<!-- Generated by graphviz version 2.43.0 (0)
 -->
<!-- Title: Current Local MVP Architecture Pages: 1 -->
<svg width="1042pt" height="571pt"
 viewBox="0.00 0.00 1042.00 571.00" xmlns="http://www.w3.org/2000/svg" xmlns:xlink="http://www.w3.org/1999/xlink">
<g id="graph0" class="graph" transform="scale(1 1) rotate(0) translate(36 535)">
<title>Current Local MVP Architecture</title>
<polygon fill="white" stroke="transparent" points="-36,36 -36,-535 1006,-535 1006,36 -36,36"/>
<text text-anchor="middle" x="485" y="-10.8" font-family="Sans-Serif" font-size="24.00" fill="#2d3436">Current Local MVP Architecture</text>
<g id="clust1" class="cluster">
<title>cluster_Local Development Machine</title>
<path fill="#f5f5f5" stroke="#888888" d="M310,-42C310,-42 950,-42 950,-42 956,-42 962,-48 962,-54 962,-54 962,-479 962,-479 962,-485 956,-491 950,-491 950,-491 310,-491 310,-491 304,-491 298,-485 298,-479 298,-479 298,-54 298,-54 298,-48 304,-42 310,-42"/>
<text text-anchor="middle" x="403.5" y="-475.8" font-family="Sans-Serif" font-size="14.00" fill="#2d3436">Local Development Machine</text>
</g>
<!-- 2bf094700c9f448ababea5161604e03f -->
<g id="node1" class="node">
<title>2bf094700c9f448ababea5161604e03f</title>
<image xlink:href="/usr/local/lib/python3.12/dist-packages/resources/onprem/client/user.png" width="101px" height="101px" preserveAspectRatio="xMinYMin meet" x="0" y="-224.5"/>
<text text-anchor="middle" x="50.5" y="-108.6" font-family="Sans-Serif" font-size="13.00" fill="#2d3436">Student Browser</text>
<text text-anchor="middle" x="50.5" y="-94.6" font-family="Sans-Serif" font-size="13.00" fill="#2d3436">(local machine)</text>
</g>
<!-- b7329721921d4252aa08eadfc649486d -->
<g id="node2" class="node">
<title>b7329721921d4252aa08eadfc649486d</title>
<image xlink:href="/usr/local/lib/python3.12/dist-packages/resources/programming/framework/react.png" width="101px" height="101px" preserveAspectRatio="xMinYMin meet" x="306" y="-224.5"/>
<text text-anchor="middle" x="356.5" y="-108.6" font-family="Sans-Serif" font-size="13.00" fill="#2d3436">React + Vite</text>
<text text-anchor="middle" x="356.5" y="-94.6" font-family="Sans-Serif" font-size="13.00" fill="#2d3436">dev server</text>
<text text-anchor="middle" x="356.5" y="-80.6" font-family="Sans-Serif" font-size="13.00" fill="#2d3436">localhost:5173</text>
</g>
<!-- 2bf094700c9f448ababea5161604e03f&#45;&gt;b7329721921d4252aa08eadfc649486d -->
<g id="edge1" class="edge">
<title>2bf094700c9f448ababea5161604e03f&#45;&gt;b7329721921d4252aa08eadfc649486d</title>
<path fill="none" stroke="#7b8894" d="M101.02,-174C154.16,-174 238.58,-174 295.46,-174"/>
<polygon fill="#7b8894" stroke="#7b8894" points="295.75,-177.5 305.75,-174 295.75,-170.5 295.75,-177.5"/>
<text text-anchor="middle" x="203.5" y="-177.6" font-family="Sans-Serif" font-size="13.00" fill="#2d3436">http://localhost:5173</text>
</g>
<!-- 7a0bf3bfb65b4f6fac6e0aaef232ad00 -->
<g id="node3" class="node">
<title>7a0bf3bfb65b4f6fac6e0aaef232ad00</title>
<image xlink:href="/usr/local/lib/python3.12/dist-packages/resources/programming/framework/django.png" width="101px" height="101px" preserveAspectRatio="xMinYMin meet" x="571" y="-224.5"/>
<text text-anchor="middle" x="621.5" y="-108.6" font-family="Sans-Serif" font-size="13.00" fill="#2d3436">Django REST</text>
<text text-anchor="middle" x="621.5" y="-94.6" font-family="Sans-Serif" font-size="13.00" fill="#2d3436">Framework</text>
<text text-anchor="middle" x="621.5" y="-80.6" font-family="Sans-Serif" font-size="13.00" fill="#2d3436">localhost:8000</text>
</g>
<!-- b7329721921d4252aa08eadfc649486d&#45;&gt;7a0bf3bfb65b4f6fac6e0aaef232ad00 -->
<g id="edge2" class="edge">
<title>b7329721921d4252aa08eadfc649486d&#45;&gt;7a0bf3bfb65b4f6fac6e0aaef232ad00</title>
<path fill="none" stroke="darkblue" stroke-width="2" d="M407.28,-174C450.89,-174 514.37,-174 560.72,-174"/>
<polygon fill="darkblue" stroke="darkblue" stroke-width="2" points="560.93,-177.5 570.93,-174 560.93,-170.5 560.93,-177.5"/>
<text text-anchor="middle" x="489" y="-191.6" font-family="Sans-Serif" font-size="13.00" fill="#2d3436">REST (JSON)</text>
<text text-anchor="middle" x="489" y="-177.6" font-family="Sans-Serif" font-size="13.00" fill="#2d3436">localhost:8000</text>
</g>
<!-- 1961437a6c714a3d9d1c560398e2b65a -->
<g id="node4" class="node">
<title>1961437a6c714a3d9d1c560398e2b65a</title>
<image xlink:href="/usr/local/lib/python3.12/dist-packages/resources/generic/database/sql.png" width="101px" height="101px" preserveAspectRatio="xMinYMin meet" x="853" y="-183.5"/>
<text text-anchor="middle" x="903.5" y="-67.6" font-family="Sans-Serif" font-size="13.00" fill="#2d3436">SQLite</text>
<text text-anchor="middle" x="903.5" y="-53.6" font-family="Sans-Serif" font-size="13.00" fill="#2d3436">(db.sqlite3 file)</text>
</g>
<!-- 7a0bf3bfb65b4f6fac6e0aaef232ad00&#45;&gt;1961437a6c714a3d9d1c560398e2b65a -->
<g id="edge3" class="edge">
<title>7a0bf3bfb65b4f6fac6e0aaef232ad00&#45;&gt;1961437a6c714a3d9d1c560398e2b65a</title>
<path fill="none" stroke="darkblue" stroke-width="2" d="M672.24,-166.72C719.87,-159.74 791.81,-149.21 842.58,-141.77"/>
<polygon fill="darkblue" stroke="darkblue" stroke-width="2" points="843.37,-145.2 852.76,-140.28 842.36,-138.27 843.37,-145.2"/>
<text text-anchor="middle" x="762.5" y="-164.6" font-family="Sans-Serif" font-size="13.00" fill="#2d3436">Django ORM</text>
</g>
<!-- e8a0fb5fabe241f29af5407f1212abf7 -->
<g id="node5" class="node">
<title>e8a0fb5fabe241f29af5407f1212abf7</title>
<image xlink:href="/usr/local/lib/python3.12/dist-packages/resources/generic/compute/rack.png" width="101px" height="101px" preserveAspectRatio="xMinYMin meet" x="853" y="-413.5"/>
<text text-anchor="middle" x="903.5" y="-297.6" font-family="Sans-Serif" font-size="13.00" fill="#2d3436">Recommendation stub</text>
<text text-anchor="middle" x="903.5" y="-283.6" font-family="Sans-Serif" font-size="13.00" fill="#2d3436">(rule&#45;based,</text>
<text text-anchor="middle" x="903.5" y="-269.6" font-family="Sans-Serif" font-size="13.00" fill="#2d3436">no external AI yet)</text>
</g>
<!-- 7a0bf3bfb65b4f6fac6e0aaef232ad00&#45;&gt;e8a0fb5fabe241f29af5407f1212abf7 -->
<g id="edge4" class="edge">
<title>7a0bf3bfb65b4f6fac6e0aaef232ad00&#45;&gt;e8a0fb5fabe241f29af5407f1212abf7</title>
<path fill="none" stroke="#7b8894" stroke-dasharray="5,2" d="M672.24,-207.57C720.37,-240.06 793.31,-289.3 844.16,-323.62"/>
<polygon fill="#7b8894" stroke="#7b8894" points="842.51,-326.73 852.76,-329.42 846.43,-320.93 842.51,-326.73"/>
<text text-anchor="middle" x="762.5" y="-324.6" font-family="Sans-Serif" font-size="13.00" fill="#2d3436">provider&#45;agnostic</text>
<text text-anchor="middle" x="762.5" y="-310.6" font-family="Sans-Serif" font-size="13.00" fill="#2d3436">service layer</text>
</g>
</g>
</svg>
