<?xml version="1.0" encoding="UTF-8" standalone="no"?>
<!DOCTYPE svg PUBLIC "-//W3C//DTD SVG 1.1//EN"
 "http://www.w3.org/Graphics/SVG/1.1/DTD/svg11.dtd">
<!-- Generated by graphviz version 2.43.0 (0)
 -->
<!-- Title: AI Career Assistant &#45; Target AWS Architecture (Corrected) Pages: 1 -->
<svg width="1601pt" height="1224pt"
 viewBox="0.00 0.00 1600.50 1224.00" xmlns="http://www.w3.org/2000/svg" xmlns:xlink="http://www.w3.org/1999/xlink">
<g id="graph0" class="graph" transform="scale(1 1) rotate(0) translate(36 1188)">
<title>AI Career Assistant &#45; Target AWS Architecture (Corrected)</title>
<polygon fill="white" stroke="transparent" points="-36,36 -36,-1188 1564.5,-1188 1564.5,36 -36,36"/>
<text text-anchor="middle" x="764.25" y="-10.4" font-family="Sans-Serif" font-size="22.00" fill="#2d3436">AI Career Assistant &#45; Target AWS Architecture (Corrected)</text>
<g id="clust1" class="cluster">
<title>cluster_AWS Global Services</title>
<path fill="#fdeeee" stroke="#c97a7a" d="M1112.5,-654.5C1112.5,-654.5 1508.5,-654.5 1508.5,-654.5 1514.5,-654.5 1520.5,-660.5 1520.5,-666.5 1520.5,-666.5 1520.5,-874.5 1520.5,-874.5 1520.5,-880.5 1514.5,-886.5 1508.5,-886.5 1508.5,-886.5 1112.5,-886.5 1112.5,-886.5 1106.5,-886.5 1100.5,-880.5 1100.5,-874.5 1100.5,-874.5 1100.5,-666.5 1100.5,-666.5 1100.5,-660.5 1106.5,-654.5 1112.5,-654.5"/>
<text text-anchor="middle" x="1176.5" y="-872.1" font-family="Sans-Serif" font-size="13.00" fill="#2d3436">AWS Global Services</text>
</g>
<g id="clust2" class="cluster">
<title>cluster_AWS Region</title>
<path fill="#eff6fb" stroke="#7aa5c9" d="M193.5,-40C193.5,-40 1080.5,-40 1080.5,-40 1086.5,-40 1092.5,-46 1092.5,-52 1092.5,-52 1092.5,-948 1092.5,-948 1092.5,-954 1086.5,-960 1080.5,-960 1080.5,-960 193.5,-960 193.5,-960 187.5,-960 181.5,-954 181.5,-948 181.5,-948 181.5,-52 181.5,-52 181.5,-46 187.5,-40 193.5,-40"/>
<text text-anchor="middle" x="229" y="-945.6" font-family="Sans-Serif" font-size="13.00" fill="#2d3436">AWS Region</text>
</g>
<g id="clust3" class="cluster">
<title>cluster_VPC &#45; all subnet tiers span 2 AZs</title>
<path fill="#eaf4ea" stroke="#5b9e5b" d="M201.5,-48C201.5,-48 493.5,-48 493.5,-48 499.5,-48 505.5,-54 505.5,-60 505.5,-60 505.5,-918 505.5,-918 505.5,-924 499.5,-930 493.5,-930 493.5,-930 201.5,-930 201.5,-930 195.5,-930 189.5,-924 189.5,-918 189.5,-918 189.5,-60 189.5,-60 189.5,-54 195.5,-48 201.5,-48"/>
<text text-anchor="middle" x="306" y="-915.6" font-family="Sans-Serif" font-size="13.00" fill="#2d3436">VPC &#45; all subnet tiers span 2 AZs</text>
</g>
<g id="clust4" class="cluster">
<title>cluster_Public Subnets x2</title>
<path fill="#fff6e5" stroke="#d9a441" d="M220.5,-640C220.5,-640 465.5,-640 465.5,-640 471.5,-640 477.5,-646 477.5,-652 477.5,-652 477.5,-888 477.5,-888 477.5,-894 471.5,-900 465.5,-900 465.5,-900 220.5,-900 220.5,-900 214.5,-900 208.5,-894 208.5,-888 208.5,-888 208.5,-652 208.5,-652 208.5,-646 214.5,-640 220.5,-640"/>
<text text-anchor="middle" x="269" y="-886.4" font-family="Sans-Serif" font-size="12.00" fill="#2d3436">Public Subnets x2</text>
</g>
<g id="clust5" class="cluster">
<title>cluster_Private App Subnets x2</title>
<path fill="#edeaf7" stroke="#7a6bb5" d="M354.5,-348C354.5,-348 485.5,-348 485.5,-348 491.5,-348 497.5,-354 497.5,-360 497.5,-360 497.5,-567 497.5,-567 497.5,-573 491.5,-579 485.5,-579 485.5,-579 354.5,-579 354.5,-579 348.5,-579 342.5,-573 342.5,-567 342.5,-567 342.5,-360 342.5,-360 342.5,-354 348.5,-348 354.5,-348"/>
<text text-anchor="middle" x="420" y="-565.4" font-family="Sans-Serif" font-size="12.00" fill="#2d3436">Private App Subnets x2</text>
</g>
<g id="clust6" class="cluster">
<title>cluster_Private DB Subnets x2</title>
<path fill="#edeaf7" stroke="#7a6bb5" d="M347.5,-56C347.5,-56 472.5,-56 472.5,-56 478.5,-56 484.5,-62 484.5,-68 484.5,-68 484.5,-275 484.5,-275 484.5,-281 478.5,-287 472.5,-287 472.5,-287 347.5,-287 347.5,-287 341.5,-287 335.5,-281 335.5,-275 335.5,-275 335.5,-68 335.5,-68 335.5,-62 341.5,-56 347.5,-56"/>
<text text-anchor="middle" x="410" y="-273.4" font-family="Sans-Serif" font-size="12.00" fill="#2d3436">Private DB Subnets x2</text>
</g>
<g id="clust7" class="cluster">
<title>cluster_Regional Managed Services (outside VPC)</title>
<path fill="#f0f0f0" stroke="#8a8a8a" d="M525.5,-56C525.5,-56 1072.5,-56 1072.5,-56 1078.5,-56 1084.5,-62 1084.5,-68 1084.5,-68 1084.5,-275 1084.5,-275 1084.5,-281 1078.5,-287 1072.5,-287 1072.5,-287 525.5,-287 525.5,-287 519.5,-287 513.5,-281 513.5,-275 513.5,-275 513.5,-68 513.5,-68 513.5,-62 519.5,-56 525.5,-56"/>
<text text-anchor="middle" x="646" y="-273.4" font-family="Sans-Serif" font-size="12.00" fill="#2d3436">Regional Managed Services (outside VPC)</text>
</g>
<!-- 331c2edf5c394010905580be9b95a8d2 -->
<g id="node1" class="node">
<title>331c2edf5c394010905580be9b95a8d2</title>
<image xlink:href="/usr/local/lib/python3.12/dist-packages/resources/onprem/client/user.png" width="101px" height="101px" preserveAspectRatio="xMinYMin meet" x="1249" y="-1134"/>
<text text-anchor="middle" x="1299.5" y="-1018.6" font-family="Sans-Serif" font-size="13.00" fill="#2d3436">Student Browser</text>
</g>
<!-- 3147529fef2b41099605e54c21e1be85 -->
<g id="node2" class="node">
<title>3147529fef2b41099605e54c21e1be85</title>
<image xlink:href="/usr/local/lib/python3.12/dist-packages/resources/aws/network/route-53.png" width="101px" height="101px" preserveAspectRatio="xMinYMin meet" x="1411" y="-810"/>
<text text-anchor="middle" x="1461.5" y="-694.1" font-family="Sans-Serif" font-size="13.00" fill="#2d3436">Route 53</text>
<text text-anchor="middle" x="1461.5" y="-680.1" font-family="Sans-Serif" font-size="13.00" fill="#2d3436">(DNS)</text>
</g>
<!-- 331c2edf5c394010905580be9b95a8d2&#45;&gt;3147529fef2b41099605e54c21e1be85 -->
<g id="edge1" class="edge">
<title>331c2edf5c394010905580be9b95a8d2&#45;&gt;3147529fef2b41099605e54c21e1be85</title>
<path fill="none" stroke="#7b8894" d="M1350.08,-1046.14C1370.71,-1028.88 1393.06,-1006.64 1407.5,-982 1430.48,-942.8 1443.71,-894.22 1451.31,-852.55"/>
<polygon fill="#7b8894" stroke="#7b8894" points="1454.76,-853.12 1453.03,-842.67 1447.87,-851.92 1454.76,-853.12"/>
<text text-anchor="middle" x="1435.5" y="-971.6" font-family="Sans-Serif" font-size="13.00" fill="#2d3436">1. DNS</text>
</g>
<!-- 9becea871575463fa7cd36125802e322 -->
<g id="node3" class="node">
<title>9becea871575463fa7cd36125802e322</title>
<image xlink:href="/usr/local/lib/python3.12/dist-packages/resources/aws/network/cloudfront.png" width="101px" height="101px" preserveAspectRatio="xMinYMin meet" x="1260" y="-810"/>
<text text-anchor="middle" x="1310.5" y="-694.1" font-family="Sans-Serif" font-size="13.00" fill="#2d3436">CloudFront</text>
<text text-anchor="middle" x="1310.5" y="-680.1" font-family="Sans-Serif" font-size="13.00" fill="#2d3436">(CDN)</text>
</g>
<!-- 331c2edf5c394010905580be9b95a8d2&#45;&gt;9becea871575463fa7cd36125802e322 -->
<g id="edge2" class="edge">
<title>331c2edf5c394010905580be9b95a8d2&#45;&gt;9becea871575463fa7cd36125802e322</title>
<path fill="none" stroke="#7b8894" d="M1294.15,-1014.96C1293.46,-1003.95 1292.87,-992.66 1292.5,-982 1291.02,-939.52 1294.15,-892.59 1298.19,-852.9"/>
<polygon fill="#7b8894" stroke="#7b8894" points="1301.7,-853.02 1299.27,-842.7 1294.74,-852.28 1301.7,-853.02"/>
<text text-anchor="middle" x="1346" y="-971.6" font-family="Sans-Serif" font-size="13.00" fill="#2d3436">2. load frontend</text>
</g>
<!-- 23474bb568a04a42bd8afcb6a5fba865 -->
<g id="node5" class="node">
<title>23474bb568a04a42bd8afcb6a5fba865</title>
<image xlink:href="/usr/local/lib/python3.12/dist-packages/resources/aws/network/elastic-load-balancing.png" width="101px" height="101px" preserveAspectRatio="xMinYMin meet" x="368" y="-810"/>
<text text-anchor="middle" x="418.5" y="-693.6" font-family="Sans-Serif" font-size="13.00" fill="#2d3436">Application</text>
<text text-anchor="middle" x="418.5" y="-679.6" font-family="Sans-Serif" font-size="13.00" fill="#2d3436">Load Balancer</text>
<text text-anchor="middle" x="418.5" y="-665.6" font-family="Sans-Serif" font-size="13.00" fill="#2d3436">HTTPS :443</text>
<text text-anchor="middle" x="418.5" y="-651.6" font-family="Sans-Serif" font-size="13.00" fill="#2d3436">SG: 443 from internet</text>
</g>
<!-- 331c2edf5c394010905580be9b95a8d2&#45;&gt;23474bb568a04a42bd8afcb6a5fba865 -->
<g id="edge4" class="edge">
<title>331c2edf5c394010905580be9b95a8d2&#45;&gt;23474bb568a04a42bd8afcb6a5fba865</title>
<path fill="none" stroke="darkblue" stroke-width="2.2" d="M1248.97,-1064.03C1096.7,-1008.38 642.7,-842.44 478.56,-782.45"/>
<polygon fill="darkblue" stroke="darkblue" stroke-width="2.2" points="479.69,-779.14 469.1,-778.99 477.29,-785.71 479.69,-779.14"/>
<text text-anchor="middle" x="1056.5" y="-971.6" font-family="Sans-Serif" font-size="13.00" fill="#2d3436">3. HTTPS API</text>
</g>
<!-- 29c128e927b848d597633911436a04a3 -->
<g id="node9" class="node">
<title>29c128e927b848d597633911436a04a3</title>
<image xlink:href="/usr/local/lib/python3.12/dist-packages/resources/aws/storage/simple-storage-service-s3.png" width="101px" height="101px" preserveAspectRatio="xMinYMin meet" x="975" y="-211.5"/>
<text text-anchor="middle" x="1025.5" y="-95.6" font-family="Sans-Serif" font-size="13.00" fill="#2d3436">S3: frontend build</text>
<text text-anchor="middle" x="1025.5" y="-81.6" font-family="Sans-Serif" font-size="13.00" fill="#2d3436">(OAC: CloudFront only)</text>
</g>
<!-- 9becea871575463fa7cd36125802e322&#45;&gt;29c128e927b848d597633911436a04a3 -->
<g id="edge3" class="edge">
<title>9becea871575463fa7cd36125802e322&#45;&gt;29c128e927b848d597633911436a04a3</title>
<path fill="none" stroke="#7b8894" d="M1271.32,-676.5C1218.36,-565.66 1124.23,-368.64 1069.09,-253.24"/>
<polygon fill="#7b8894" stroke="#7b8894" points="1072.17,-251.56 1064.7,-244.04 1065.85,-254.57 1072.17,-251.56"/>
<text text-anchor="middle" x="1283" y="-449.6" font-family="Sans-Serif" font-size="13.00" fill="#2d3436">origin fetch (OAC)</text>
</g>
<!-- b7f33f81328d47e994fb10950ae1ecf0 -->
<g id="node4" class="node">
<title>b7f33f81328d47e994fb10950ae1ecf0</title>
<image xlink:href="/usr/local/lib/python3.12/dist-packages/resources/aws/security/identity-and-access-management-iam.png" width="101px" height="101px" preserveAspectRatio="xMinYMin meet" x="1109" y="-810"/>
<text text-anchor="middle" x="1159.5" y="-694.1" font-family="Sans-Serif" font-size="13.00" fill="#2d3436">IAM</text>
<text text-anchor="middle" x="1159.5" y="-680.1" font-family="Sans-Serif" font-size="13.00" fill="#2d3436">(instance role,</text>
<text text-anchor="middle" x="1159.5" y="-666.1" font-family="Sans-Serif" font-size="13.00" fill="#2d3436">least privilege)</text>
</g>
<!-- 625a51ac5cbf4f9ebc3a6a568538a7ca -->
<g id="node7" class="node">
<title>625a51ac5cbf4f9ebc3a6a568538a7ca</title>
<image xlink:href="/usr/local/lib/python3.12/dist-packages/resources/aws/compute/ec2.png" width="101px" height="101px" preserveAspectRatio="xMinYMin meet" x="388" y="-503.5"/>
<text text-anchor="middle" x="438.5" y="-387.6" font-family="Sans-Serif" font-size="13.00" fill="#2d3436">Django REST API</text>
<text text-anchor="middle" x="438.5" y="-373.6" font-family="Sans-Serif" font-size="13.00" fill="#2d3436">no public IP</text>
<text text-anchor="middle" x="438.5" y="-359.6" font-family="Sans-Serif" font-size="13.00" fill="#2d3436">SG: from ALB SG only</text>
</g>
<!-- b7f33f81328d47e994fb10950ae1ecf0&#45;&gt;625a51ac5cbf4f9ebc3a6a568538a7ca -->
<g id="edge12" class="edge">
<title>b7f33f81328d47e994fb10950ae1ecf0&#45;&gt;625a51ac5cbf4f9ebc3a6a568538a7ca</title>
<path fill="none" stroke="firebrick" stroke-dasharray="1,5" d="M1108.8,-737.09C979.39,-682.44 637.3,-537.96 498.39,-479.29"/>
<polygon fill="firebrick" stroke="firebrick" points="499.72,-476.05 489.14,-475.39 496.99,-482.5 499.72,-476.05"/>
<text text-anchor="middle" x="853" y="-597.6" font-family="Sans-Serif" font-size="13.00" fill="#2d3436">instance role</text>
</g>
<!-- 23474bb568a04a42bd8afcb6a5fba865&#45;&gt;625a51ac5cbf4f9ebc3a6a568538a7ca -->
<g id="edge5" class="edge">
<title>23474bb568a04a42bd8afcb6a5fba865&#45;&gt;625a51ac5cbf4f9ebc3a6a568538a7ca</title>
<path fill="none" stroke="darkblue" stroke-width="2.2" d="M425.78,-647.71C427.65,-619.23 429.65,-588.67 431.51,-560.42"/>
<polygon fill="darkblue" stroke="darkblue" stroke-width="2.2" points="435.02,-560.34 432.19,-550.13 428.04,-559.88 435.02,-560.34"/>
<text text-anchor="middle" x="463.5" y="-597.6" font-family="Sans-Serif" font-size="13.00" fill="#2d3436">4. forward</text>
</g>
<!-- b4eddebb11334444878550ce42e79c04 -->
<g id="node6" class="node">
<title>b4eddebb11334444878550ce42e79c04</title>
<image xlink:href="/usr/local/lib/python3.12/dist-packages/resources/aws/network/nat-gateway.png" width="101px" height="101px" preserveAspectRatio="xMinYMin meet" x="217" y="-810"/>
<text text-anchor="middle" x="267.5" y="-694.1" font-family="Sans-Serif" font-size="13.00" fill="#2d3436">NAT Gateway</text>
<text text-anchor="middle" x="267.5" y="-680.1" font-family="Sans-Serif" font-size="13.00" fill="#2d3436">(sole outbound path</text>
<text text-anchor="middle" x="267.5" y="-666.1" font-family="Sans-Serif" font-size="13.00" fill="#2d3436">for private subnets)</text>
</g>
<!-- 0be2e741889646c98c751ab2e782f038 -->
<g id="node13" class="node">
<title>0be2e741889646c98c751ab2e782f038</title>
<image xlink:href="/usr/local/lib/python3.12/dist-packages/resources/generic/compute/rack.png" width="101px" height="101px" preserveAspectRatio="xMinYMin meet" x="0" y="-503.5"/>
<text text-anchor="middle" x="50.5" y="-387.6" font-family="Sans-Serif" font-size="13.00" fill="#2d3436">External AI</text>
<text text-anchor="middle" x="50.5" y="-373.6" font-family="Sans-Serif" font-size="13.00" fill="#2d3436">Provider API</text>
</g>
<!-- b4eddebb11334444878550ce42e79c04&#45;&gt;0be2e741889646c98c751ab2e782f038 -->
<g id="edge8" class="edge">
<title>b4eddebb11334444878550ce42e79c04&#45;&gt;0be2e741889646c98c751ab2e782f038</title>
<path fill="none" stroke="darkblue" stroke-width="2.2" d="M216.88,-716.45C186.94,-689.68 149.85,-652.99 123.5,-615 108.75,-593.74 95.8,-569.02 85.06,-545.43"/>
<polygon fill="darkblue" stroke="darkblue" stroke-width="2.2" points="88.17,-543.81 80.9,-536.1 81.78,-546.66 88.17,-543.81"/>
<text text-anchor="middle" x="194.5" y="-604.6" font-family="Sans-Serif" font-size="13.00" fill="#2d3436">7. AI call</text>
<text text-anchor="middle" x="194.5" y="-590.6" font-family="Sans-Serif" font-size="13.00" fill="#2d3436">(key server&#45;side only)</text>
</g>
<!-- 625a51ac5cbf4f9ebc3a6a568538a7ca&#45;&gt;b4eddebb11334444878550ce42e79c04 -->
<g id="edge7" class="edge">
<title>625a51ac5cbf4f9ebc3a6a568538a7ca&#45;&gt;b4eddebb11334444878550ce42e79c04</title>
<path fill="none" stroke="darkblue" stroke-width="2.2" d="M387.97,-484.6C353.89,-508.13 311.16,-543.86 288.5,-587 278.05,-606.89 271.92,-629.83 268.47,-652.33"/>
<polygon fill="darkblue" stroke="darkblue" stroke-width="2.2" points="265,-651.89 267.11,-662.27 271.94,-652.84 265,-651.89"/>
<text text-anchor="middle" x="352" y="-597.6" font-family="Sans-Serif" font-size="13.00" fill="#2d3436">6. outbound HTTPS</text>
</g>
<!-- 7b8df6c7109b40278f0ea0e38d693b55 -->
<g id="node8" class="node">
<title>7b8df6c7109b40278f0ea0e38d693b55</title>
<image xlink:href="/usr/local/lib/python3.12/dist-packages/resources/aws/database/rds.png" width="101px" height="101px" preserveAspectRatio="xMinYMin meet" x="361" y="-211.5"/>
<text text-anchor="middle" x="411.5" y="-95.6" font-family="Sans-Serif" font-size="13.00" fill="#2d3436">RDS PostgreSQL</text>
<text text-anchor="middle" x="411.5" y="-81.6" font-family="Sans-Serif" font-size="13.00" fill="#2d3436">not publicly accessible</text>
<text text-anchor="middle" x="411.5" y="-67.6" font-family="Sans-Serif" font-size="13.00" fill="#2d3436">SG: 5432 from app SG only</text>
</g>
<!-- 625a51ac5cbf4f9ebc3a6a568538a7ca&#45;&gt;7b8df6c7109b40278f0ea0e38d693b55 -->
<g id="edge6" class="edge">
<title>625a51ac5cbf4f9ebc3a6a568538a7ca&#45;&gt;7b8df6c7109b40278f0ea0e38d693b55</title>
<path fill="none" stroke="darkblue" stroke-width="2.2" d="M429.55,-355.84C426.94,-327.81 424.07,-297.04 421.41,-268.42"/>
<polygon fill="darkblue" stroke="darkblue" stroke-width="2.2" points="424.89,-268.03 420.47,-258.4 417.92,-268.68 424.89,-268.03"/>
<text text-anchor="middle" x="468.5" y="-305.6" font-family="Sans-Serif" font-size="13.00" fill="#2d3436">5. SQL :5432</text>
</g>
<!-- 9f86b12f567a4714aec2b8ab5a2d43f2 -->
<g id="node10" class="node">
<title>9f86b12f567a4714aec2b8ab5a2d43f2</title>
<image xlink:href="/usr/local/lib/python3.12/dist-packages/resources/aws/storage/simple-storage-service-s3.png" width="101px" height="101px" preserveAspectRatio="xMinYMin meet" x="673" y="-211.5"/>
<text text-anchor="middle" x="723.5" y="-95.6" font-family="Sans-Serif" font-size="13.00" fill="#2d3436">S3: file storage</text>
<text text-anchor="middle" x="723.5" y="-81.6" font-family="Sans-Serif" font-size="13.00" fill="#2d3436">(future)</text>
</g>
<!-- 625a51ac5cbf4f9ebc3a6a568538a7ca&#45;&gt;9f86b12f567a4714aec2b8ab5a2d43f2 -->
<g id="edge11" class="edge">
<title>625a51ac5cbf4f9ebc3a6a568538a7ca&#45;&gt;9f86b12f567a4714aec2b8ab5a2d43f2</title>
<path fill="none" stroke="#7b8894" stroke-dasharray="1,5" d="M489.02,-420.09C534.44,-389.71 601.12,-340.73 648.5,-287 657.82,-276.43 666.63,-264.56 674.71,-252.43"/>
<polygon fill="#7b8894" stroke="#7b8894" points="677.67,-254.3 680.19,-244.01 671.8,-250.49 677.67,-254.3"/>
<text text-anchor="middle" x="658.5" y="-305.6" font-family="Sans-Serif" font-size="13.00" fill="#2d3436">future</text>
</g>
<!-- 804a0ff5829d4c49bf21faba2191b275 -->
<g id="node11" class="node">
<title>804a0ff5829d4c49bf21faba2191b275</title>
<image xlink:href="/usr/local/lib/python3.12/dist-packages/resources/aws/management/systems-manager.png" width="101px" height="101px" preserveAspectRatio="xMinYMin meet" x="824" y="-211.5"/>
<text text-anchor="middle" x="874.5" y="-95.6" font-family="Sans-Serif" font-size="13.00" fill="#2d3436">SSM Parameter Store</text>
<text text-anchor="middle" x="874.5" y="-81.6" font-family="Sans-Serif" font-size="13.00" fill="#2d3436">(secrets, free tier;</text>
<text text-anchor="middle" x="874.5" y="-67.6" font-family="Sans-Serif" font-size="13.00" fill="#2d3436">Secrets Manager = future)</text>
</g>
<!-- 625a51ac5cbf4f9ebc3a6a568538a7ca&#45;&gt;804a0ff5829d4c49bf21faba2191b275 -->
<g id="edge9" class="edge">
<title>625a51ac5cbf4f9ebc3a6a568538a7ca&#45;&gt;804a0ff5829d4c49bf21faba2191b275</title>
<path fill="none" stroke="#7b8894" stroke-dasharray="5,2" d="M489.05,-439.31C564.17,-418.33 706.39,-370.25 799.5,-287 806.43,-280.81 812.91,-273.82 818.93,-266.39"/>
<polygon fill="#7b8894" stroke="#7b8894" points="821.94,-268.22 825.29,-258.17 816.4,-263.94 821.94,-268.22"/>
<text text-anchor="middle" x="867" y="-312.6" font-family="Sans-Serif" font-size="13.00" fill="#2d3436">secrets + logs</text>
<text text-anchor="middle" x="867" y="-298.6" font-family="Sans-Serif" font-size="13.00" fill="#2d3436">via NAT or VPC endpoints</text>
</g>
<!-- b7f99293f78541a984ee97d7b409abba -->
<g id="node12" class="node">
<title>b7f99293f78541a984ee97d7b409abba</title>
<image xlink:href="/usr/local/lib/python3.12/dist-packages/resources/aws/management/cloudwatch.png" width="101px" height="101px" preserveAspectRatio="xMinYMin meet" x="522" y="-211.5"/>
<text text-anchor="middle" x="572.5" y="-95.6" font-family="Sans-Serif" font-size="13.00" fill="#2d3436">CloudWatch</text>
<text text-anchor="middle" x="572.5" y="-81.6" font-family="Sans-Serif" font-size="13.00" fill="#2d3436">(logs, metrics,</text>
<text text-anchor="middle" x="572.5" y="-67.6" font-family="Sans-Serif" font-size="13.00" fill="#2d3436">billing alarms)</text>
</g>
<!-- 625a51ac5cbf4f9ebc3a6a568538a7ca&#45;&gt;b7f99293f78541a984ee97d7b409abba -->
<g id="edge10" class="edge">
<title>625a51ac5cbf4f9ebc3a6a568538a7ca&#45;&gt;b7f99293f78541a984ee97d7b409abba</title>
<path fill="none" stroke="#7b8894" stroke-dasharray="5,2" d="M489.08,-383.17C501.48,-364.29 513.92,-343.39 523.5,-323 531.64,-305.66 538.83,-286.64 545.01,-267.94"/>
<polygon fill="#7b8894" stroke="#7b8894" points="548.42,-268.79 548.16,-258.2 541.76,-266.64 548.42,-268.79"/>
</g>
</g>
</svg>
